<svg width="24" height="17" viewBox="0 0 24 17" fill="none" xmlns="http://www.w3.org/2000/svg">
<path fill-rule="evenodd" clip-rule="evenodd" d="M22.95 9.6C22.6186 9.84853 22.1485 9.78137 21.9 9.45C20.9833 8.21775 19.5358 7.49404 18 7.5C17.6985 7.49997 17.4263 7.31937 17.3091 7.04156C17.2304 6.85514 17.2304 6.64486 17.3091 6.45844C17.4263 6.18063 17.6985 6.00003 18 6C19.1692 5.9999 20.1435 5.10425 20.2418 3.93916C20.3401 2.77406 19.5297 1.72784 18.377 1.53184C17.2243 1.33584 16.1136 2.05539 15.8212 3.1875C15.7177 3.58877 15.3085 3.83012 14.9072 3.72656C14.5059 3.62301 14.2646 3.21377 14.3681 2.8125C14.7687 1.26266 16.1088 0.137938 17.7047 0.0123658C19.3005 -0.113207 20.8001 0.788054 21.4381 2.25618C22.0761 3.7243 21.7119 5.43555 20.5312 6.51656C21.5511 6.95812 22.4376 7.65882 23.1028 8.54906C23.2222 8.7086 23.2731 8.90907 23.2444 9.10624C23.2158 9.3034 23.1098 9.48106 22.95 9.6ZM17.8988 15.375C18.0465 15.6075 18.055 15.9023 17.9207 16.1429C17.7865 16.3834 17.5311 16.531 17.2557 16.5273C16.9802 16.5236 16.7289 16.3691 16.6012 16.125C15.64 14.4973 13.8903 13.4986 12 13.4986C10.1097 13.4986 8.36001 14.4973 7.39875 16.125C7.27105 16.3691 7.0198 16.5236 6.74434 16.5273C6.46887 16.531 6.21353 16.3834 6.07928 16.1429C5.94502 15.9023 5.95346 15.6075 6.10125 15.375C6.82837 14.1257 7.93706 13.1425 9.26437 12.57C7.73297 11.3975 7.11905 9.37947 7.73805 7.55279C8.35704 5.7261 10.0713 4.497 12 4.497C13.9287 4.497 15.643 5.7261 16.262 7.55279C16.8809 9.37947 16.267 11.3975 14.7356 12.57C16.0629 13.1425 17.1716 14.1257 17.8988 15.375ZM12 12C13.6569 12 15 10.6569 15 9C15 7.34315 13.6569 6 12 6C10.3431 6 9 7.34315 9 9C9 10.6569 10.3431 12 12 12ZM6.75 6.75C6.75 6.33579 6.41421 6 6 6C4.83076 5.9999 3.85646 5.10425 3.75816 3.93916C3.65987 2.77406 4.47034 1.72784 5.62303 1.53184C6.77572 1.33584 7.88644 2.05539 8.17875 3.1875C8.2823 3.58877 8.69154 3.83012 9.09281 3.72656C9.49408 3.62301 9.73543 3.21377 9.63188 2.8125C9.23134 1.26266 7.89116 0.137938 6.29533 0.0123658C4.6995 -0.113207 3.19991 0.788054 2.56189 2.25618C1.92388 3.7243 2.28813 5.43555 3.46875 6.51656C2.44995 6.95854 1.56442 7.65921 0.9 8.54906C0.651213 8.88043 0.71816 9.35074 1.04953 9.59953C1.3809 9.84832 1.85121 9.78137 2.1 9.45C3.01674 8.21775 4.46416 7.49404 6 7.5C6.41421 7.5 6.75 7.16421 6.75 6.75Z" fill="#1C1C21"/>
</svg>
