<svg width="14" height="21" viewBox="0 0 14 21" fill="none" xmlns="http://www.w3.org/2000/svg">
<path fill-rule="evenodd" clip-rule="evenodd" d="M9.25 9.75H7.75V3.75H8.5C10.1569 3.75 11.5 5.09315 11.5 6.75C11.5 7.16421 11.8358 7.5 12.25 7.5C12.6642 7.5 13 7.16421 13 6.75C12.9974 4.26579 10.9842 2.25258 8.5 2.25H7.75V0.75C7.75 0.335786 7.41421 0 7 0C6.58579 0 6.25 0.335786 6.25 0.75V2.25H5.5C3.01472 2.25 1 4.26472 1 6.75C1 9.23528 3.01472 11.25 5.5 11.25H6.25V17.25H4.75C3.09315 17.25 1.75 15.9069 1.75 14.25C1.75 13.8358 1.41421 13.5 1 13.5C0.585786 13.5 0.25 13.8358 0.25 14.25C0.252584 16.7342 2.26579 18.7474 4.75 18.75H6.25V20.25C6.25 20.6642 6.58579 21 7 21C7.41421 21 7.75 20.6642 7.75 20.25V18.75H9.25C11.7353 18.75 13.75 16.7353 13.75 14.25C13.75 11.7647 11.7353 9.75 9.25 9.75ZM5.5 9.75C3.84315 9.75 2.5 8.40685 2.5 6.75C2.5 5.09315 3.84315 3.75 5.5 3.75H6.25V9.75H5.5ZM9.25 17.25H7.75V11.25H9.25C10.9069 11.25 12.25 12.5931 12.25 14.25C12.25 15.9069 10.9069 17.25 9.25 17.25Z" fill="#1C1C21"/>
</svg>
