<svg width="14" height="15" viewBox="0 0 14 15" fill="none" xmlns="http://www.w3.org/2000/svg">
<path fill-rule="evenodd" clip-rule="evenodd" d="M7 2.2294L10.1374 3.358L7 4.56903L3.86257 3.358L7 2.2294ZM2 4.7829L6 6.32683V12.0421L2 10.4982V4.7829ZM8 12.0421V6.32683L12 4.7829V10.4982L8 12.0421ZM7.45133 0.266283C7.1596 0.16134 6.8404 0.16134 6.54867 0.266283L0.661513 2.38403C0.264633 2.52679 0 2.90323 0 3.325V10.9554C0 11.5065 0.339063 12.0009 0.853207 12.1993L6.6399 14.4329C6.87163 14.5224 7.12837 14.5224 7.3601 14.4329L13.1468 12.1993C13.6609 12.0009 14 11.5065 14 10.9554V3.325C14 2.90323 13.7354 2.52679 13.3385 2.38403L7.45133 0.266283Z" fill="#1C1C21"/>
</svg>
