<svg width="24" height="17" viewBox="0 0 24 17" fill="none" xmlns="http://www.w3.org/2000/svg">
<path fill-rule="evenodd" clip-rule="evenodd" d="M23.1956 6.46875L21.8831 3.1875C21.6553 2.61944 21.1039 2.24789 20.4919 2.25H17.25V1.5C17.25 1.08579 16.9142 0.75 16.5 0.75H2.25C1.42157 0.75 0.75 1.42157 0.75 2.25V12.75C0.75 13.5784 1.42157 14.25 2.25 14.25H3.84375C4.18363 15.5774 5.37974 16.5059 6.75 16.5059C8.12026 16.5059 9.31637 15.5774 9.65625 14.25H14.3438C14.6836 15.5774 15.8797 16.5059 17.25 16.5059C18.6203 16.5059 19.8164 15.5774 20.1562 14.25H21.75C22.5784 14.25 23.25 13.5784 23.25 12.75V6.75C23.2503 6.65361 23.2318 6.55809 23.1956 6.46875ZM17.25 3.75H20.4919L21.3919 6H17.25V3.75ZM2.25 2.25H15.75V8.25H2.25V2.25ZM6.75 15C5.92157 15 5.25 14.3284 5.25 13.5C5.25 12.6716 5.92157 12 6.75 12C7.57843 12 8.25 12.6716 8.25 13.5C8.25 14.3284 7.57843 15 6.75 15ZM14.3438 12.75H9.65625C9.31637 11.4226 8.12026 10.4941 6.75 10.4941C5.37974 10.4941 4.18363 11.4226 3.84375 12.75H2.25V9.75H15.75V10.9041C15.0534 11.3067 14.547 11.9715 14.3438 12.75ZM17.25 15C16.4216 15 15.75 14.3284 15.75 13.5C15.75 12.6716 16.4216 12 17.25 12C18.0784 12 18.75 12.6716 18.75 13.5C18.75 14.3284 18.0784 15 17.25 15ZM21.75 12.75H20.1562C19.8124 11.4261 18.6179 10.5013 17.25 10.5V7.5H21.75V12.75Z" fill="#1C1C21"/>
</svg>
