<svg width="16" height="19" viewBox="0 0 16 19" fill="none" xmlns="http://www.w3.org/2000/svg">
<path fill-rule="evenodd" clip-rule="evenodd" d="M5.75 0.5H2C1.17157 0.5 0.5 1.17157 0.5 2V17C0.5 17.8284 1.17157 18.5 2 18.5H5.75C6.57843 18.5 7.25 17.8284 7.25 17V2C7.25 1.17157 6.57843 0.5 5.75 0.5ZM5.75 17H2V2H5.75V17ZM14 0.5H10.25C9.42157 0.5 8.75 1.17157 8.75 2V17C8.75 17.8284 9.42157 18.5 10.25 18.5H14C14.8284 18.5 15.5 17.8284 15.5 17V2C15.5 1.17157 14.8284 0.5 14 0.5ZM14 17H10.25V2H14V17Z" fill="#1C1C21"/>
</svg>
